<?xml version="1.0" encoding="UTF-8" standalone="no" ?>
<!DOCTYPE svg PUBLIC "-//W3C//DTD SVG 1.1//EN" "http://www.w3.org/Graphics/SVG/1.1/DTD/svg11.dtd">
<svg xmlns="http://www.w3.org/2000/svg" xmlns:xlink="http://www.w3.org/1999/xlink" version="1.1" width="50px" height="50px" viewBox="0 0 500 500" xml:space="preserve">
<desc>Created with Fabric.js 4.6.0</desc>
<defs>
</defs>
<g transform="matrix(0.1 0 0 -0.11 249.63 68.75)" id="3RZxWq4Xa2foo8Y4MY9GB"  >
<path style="stroke: none; stroke-width: 1; stroke-dasharray: none; stroke-linecap: butt; stroke-dashoffset: 0; stroke-linejoin: miter; stroke-miterlimit: 4; fill: rgb(142,143,73); fill-rule: nonzero; opacity: 1;" vector-effect="non-scaling-stroke"  transform=" translate(-2787.18, -4480.35)" d="M 2610 5093 C 2355 5068 2109 5008 1915 4925 C 1540 4764 1221 4510 974 4174 C 903 4079 815 3932 824 3923 C 827 3920 851 3909 877 3900 C 904 3891 932 3880 940 3877 C 951 3872 968 3893 1003 3951 C 1117 4140 1307 4357 1475 4490 C 1764 4719 2075 4858 2445 4925 C 2570 4947 2849 4956 2991 4941 C 3638 4873 4207 4516 4553 3961 C 4586 3908 4614 3864 4615 3863 C 4616 3861 4633 3869 4654 3879 C 4674 3890 4705 3903 4721 3909 L 4751 3919 L 4724 3967 C 4709 3993 4663 4065 4622 4125 C 4252 4671 3654 5025 2991 5090 C 2895 5099 2689 5101 2610 5093 z" stroke-linecap="round" />
</g>
<g transform="matrix(0.1 0 0 -0.11 247.6 133.5)" id="POQzsLSdXBhOpJnw_fyzk"  >
<path style="stroke: none; stroke-width: 1; stroke-dasharray: none; stroke-linecap: butt; stroke-dashoffset: 0; stroke-linejoin: miter; stroke-miterlimit: 4; fill: rgb(14,135,235); fill-rule: nonzero; opacity: 1;" vector-effect="non-scaling-stroke"  transform=" translate(-2768.15, -3902.97)" d="M 2692 4519 C 2549 4501 2435 4445 2329 4340 C 2208 4219 2149 4078 2149 3905 C 2148 3731 2205 3594 2330 3470 C 2482 3317 2681 3254 2885 3294 C 3163 3348 3369 3583 3386 3865 C 3411 4253 3078 4566 2692 4519 z M 2898 4353 C 3011 4325 3130 4229 3185 4121 C 3306 3882 3212 3599 2974 3484 C 2789 3394 2581 3428 2437 3571 C 2208 3801 2271 4181 2562 4324 C 2674 4379 2763 4387 2898 4353 z" stroke-linecap="round" />
</g>
<g transform="matrix(0.1 0 0 -0.11 249.98 316.79)" id="oo53ccTRwsBmVpLmYhAw3"  >
<path style="stroke: none; stroke-width: 1; stroke-dasharray: none; stroke-linecap: butt; stroke-dashoffset: 0; stroke-linejoin: miter; stroke-miterlimit: 4; fill: rgb(14,135,235); fill-rule: nonzero; opacity: 1;" vector-effect="non-scaling-stroke"  transform=" translate(0, 0)" d="M 1985.42927 1515.13819 C 1844.42927 1470.13819 1757.42927 1354.13819 1758.42927 1213.13819 C 1758.42927 1176.13819 1763.42927 1131.13819 1768.42927 1113.13819 L 1778.42927 1080.13819 L 1721.42927 1055.13819 C 1262.42927 849.1381899999999 760.4292700000001 702.1381899999999 324.4292700000001 645.1381899999999 C 165.4292700000001 624.1381899999999 -229.5707299999999 621.1381899999999 -370.5707299999999 639.1381899999999 C -760.5707299999999 690.1381899999999 -1097.57073 778.1381899999999 -1475.57073 926.1381899999999 C -1639.57073 990.1381899999999 -1790.57073 1057.13819 -1790.57073 1064.13819 C -1790.57073 1067.13819 -1783.57073 1088.13819 -1775.57073 1111.13819 C -1727.57073 1247.13819 -1795.57073 1411.13819 -1931.57073 1486.13819 C -1980.57073 1513.13819 -1993.57073 1516.13819 -2080.57073 1516.13819 C -2160.57073 1516.13819 -2182.57073 1512.13819 -2218.57073 1493.13819 C -2284.57073 1458.13819 -2337.57073 1405.13819 -2367.57073 1343.13819 C -2391.57073 1294.13819 -2395.57073 1274.13819 -2395.57073 1201.13819 C -2395.57073 1132.13819 -2390.57073 1107.13819 -2370.57073 1066.13819 C -2293.57073 909.1381899999999 -2103.57073 841.1381899999999 -1947.57073 913.1381899999999 L -1889.57073 941.1381899999999 L -1777.57073 889.1381899999999 C -1442.57073 736.1381899999999 -1011.5707299999999 598.1381899999999 -676.5707299999999 537.1381899999999 C -522.5707299999999 508.1381899999999 -299.5707299999999 481.1381899999999 -217.5707299999999 481.1381899999999 C -186.5707299999999 481.1381899999999 -160.5707299999999 478.1381899999999 -160.5707299999999 475.1381899999999 C -160.5707299999999 472.1381899999999 -229.5707299999999 365.1381899999999 -313.5707299999999 238.1381899999999 C -397.5707299999999 110.1381899999999 -600.5707299999999 -199.8618100000001 -765.5707299999999 -450.8618100000001 L -1065.57073 -906.8618100000001 L -1095.57073 -900.8618100000001 C -1111.57073 -896.8618100000001 -1154.57073 -893.8618100000001 -1190.57073 -894.8618100000001 C -1267.57073 -894.8618100000001 -1329.57073 -919.8618100000001 -1389.57073 -973.8618100000001 C -1443.57073 -1022.8618100000001 -1466.57073 -1062.86181 -1486.57073 -1138.86181 C -1522.57073 -1280.86181 -1455.57073 -1423.86181 -1317.57073 -1495.86181 C -1272.57073 -1519.86181 -1254.57073 -1523.86181 -1175.57073 -1523.86181 C -1097.57073 -1523.86181 -1078.57073 -1519.86181 -1034.57073 -1496.86181 C -923.5707299999999 -1438.86181 -860.5707299999999 -1335.86181 -859.5707299999999 -1212.86181 C -858.5707299999999 -1137.86181 -872.5707299999999 -1089.86181 -912.5707299999999 -1029.86181 L -941.5707299999999 -986.8618100000001 L -841.5707299999999 -834.8618100000001 C -709.5707299999999 -634.8618100000001 -562.5707299999999 -410.8618100000001 -273.5707299999999 28.138189999999895 C -142.5707299999999 228.1381899999999 -33.57072999999991 391.1381899999999 -30.570729999999912 391.1381899999999 C -27.570729999999912 390.1381899999999 181.4292700000001 80.1381899999999 434.4292700000001 -299.8618100000001 C 826.4292700000001 -888.8618100000001 891.4292700000001 -992.8618100000001 881.4292700000001 -1006.8618100000001 C 786.4292700000001 -1140.86181 787.4292700000001 -1293.86181 882.4292700000001 -1410.86181 C 1028.42927 -1590.86181 1314.42927 -1557.86181 1416.42927 -1350.86181 C 1440.42927 -1301.86181 1444.42927 -1281.86181 1444.42927 -1208.86181 C 1444.42927 -1108.86181 1421.42927 -1049.86181 1355.42927 -983.8618100000001 C 1290.42927 -919.8618100000001 1229.42927 -894.8618100000001 1134.42927 -895.8618100000001 C 1090.42927 -895.8618100000001 1045.42927 -897.8618100000001 1034.42927 -899.8618100000001 C 1017.4292700000001 -902.8618100000001 937.4292700000001 -788.8618100000001 557.4292700000001 -218.8618100000001 C 305.4292700000001 157.1381899999999 99.42927000000009 468.1381899999999 99.42927000000009 471.1381899999999 C 99.42927000000009 475.1381899999999 162.4292700000001 483.1381899999999 239.4292700000001 489.1381899999999 C 696.4292700000001 528.1381899999999 1303.42927 697.1381899999999 1780.42927 919.1381899999999 L 1867.42927 959.1381899999999 L 1934.42927 925.1381899999999 C 1991.42927 896.1381899999999 2012.42927 891.1381899999999 2070.42927 891.1381899999999 C 2160.42927 891.1381899999999 2235.42927 919.1381899999999 2293.42927 975.1381899999999 C 2431.42927 1110.13819 2429.42927 1318.13819 2288.42927 1446.13819 C 2208.42927 1518.13819 2083.42927 1547.13819 1985.42927 1515.13819 z M 2166.42927 1350.13819 C 2262.42927 1290.13819 2271.42927 1158.13819 2183.42927 1081.13819 C 2142.42927 1045.13819 2113.42927 1037.13819 2052.42927 1044.13819 C 1916.42927 1059.13819 1858.42927 1225.13819 1955.42927 1325.13819 C 2012.42927 1384.13819 2095.42927 1394.13819 2166.42927 1350.13819 z M -1995.57073 1348.13819 C -1866.57073 1275.13819 -1892.57073 1081.13819 -2036.57073 1041.13819 C -2093.57073 1025.13819 -2137.57073 1034.13819 -2184.57073 1073.13819 C -2252.57073 1129.13819 -2267.57073 1203.13819 -2227.57073 1281.13819 C -2185.57073 1365.13819 -2079.57073 1396.13819 -1995.57073 1348.13819 z M -1100.57073 -1060.86181 C -1048.57073 -1087.86181 -1022.5707299999999 -1120.86181 -1010.5707299999999 -1174.86181 C -972.5707299999999 -1341.86181 -1192.57073 -1450.86181 -1303.57073 -1319.86181 C -1377.57073 -1230.86181 -1350.57073 -1104.86181 -1246.57073 -1057.86181 C -1192.57073 -1032.86181 -1153.57073 -1033.86181 -1100.57073 -1060.86181 z M 1186.42927 -1049.86181 C 1224.42927 -1063.86181 1269.42927 -1106.86181 1285.42927 -1145.86181 C 1348.42927 -1293.86181 1183.42927 -1435.86181 1043.42927 -1353.86181 C 996.4292700000001 -1325.86181 959.4292700000001 -1263.86181 959.4292700000001 -1210.86181 C 959.4292700000001 -1096.86181 1082.42927 -1009.8618100000001 1186.42927 -1049.86181 z" stroke-linecap="round" />
</g>
<g transform="matrix(0.1 0 0 -0.11 51.73 328.08)" id="5FI98Wy9Kt1gktdGxlR_w"  >
<path style="stroke: none; stroke-width: 1; stroke-dasharray: none; stroke-linecap: butt; stroke-dashoffset: 0; stroke-linejoin: miter; stroke-miterlimit: 4; fill: rgb(142,143,73); fill-rule: nonzero; opacity: 1;" vector-effect="non-scaling-stroke"  transform=" translate(-929.67, -2168.24)" d="M 556 3011 C 547 2955 549 2786 560 2666 C 587 2386 661 2128 790 1870 C 880 1691 978 1547 1123 1383 C 1196 1300 1230 1273 1230 1299 C 1230 1303 1248 1327 1269 1352 L 1309 1397 L 1241 1471 C 888 1865 700 2350 700 2872 C 700 3007 698 3020 682 3020 C 672 3020 641 3026 613 3033 L 562 3047 L 556 3011 z" stroke-linecap="round" />
</g>
<g transform="matrix(0.1 0 0 -0.11 445.94 329.93)" id="nA5lcWLpE99MNFfDNzJe_"  >
<path style="stroke: none; stroke-width: 1; stroke-dasharray: none; stroke-linecap: butt; stroke-dashoffset: 0; stroke-linejoin: miter; stroke-miterlimit: 4; fill: rgb(142,143,73); fill-rule: nonzero; opacity: 1;" vector-effect="non-scaling-stroke"  transform=" translate(-4629.9, -2151.74)" d="M 4918 3027 L 4860 3017 L 4860 2852 C 4860 2666 4844 2534 4799 2355 C 4716 2024 4545 1713 4301 1449 C 4248 1390 4242 1381 4256 1369 C 4265 1362 4286 1336 4303 1311 L 4334 1266 L 4407 1346 C 4632 1588 4799 1869 4900 2179 C 4979 2421 5010 2617 5010 2883 C 5010 3061 5020 3045 4918 3027 z" stroke-linecap="round" />
</g>
<g transform="matrix(0.1 0 0 -0.11 248.26 483.63)" id="Iu9Udpl9GRaUcR8ZkUCmY"  >
<path style="stroke: none; stroke-width: 1; stroke-dasharray: none; stroke-linecap: butt; stroke-dashoffset: 0; stroke-linejoin: miter; stroke-miterlimit: 4; fill: rgb(142,143,73); fill-rule: nonzero; opacity: 1;" vector-effect="non-scaling-stroke"  transform=" translate(-2774.4, -781.32)" d="M 2020 855 C 2002 819 1989 788 1991 786 C 1993 784 2047 766 2110 746 C 2463 634 2860 612 3215 685 C 3329 708 3474 748 3531 771 L 3558 781 L 3526 845 C 3505 888 3490 908 3480 906 C 3472 904 3425 890 3376 876 C 3152 810 2951 785 2710 793 C 2487 801 2319 830 2129 895 C 2088 909 2055 920 2054 920 C 2053 920 2038 891 2020 855 z" stroke-linecap="round" />
</g>
</svg>